<?xml version="1.0" encoding="utf-8"?>
<!-- Generator: Adobe Illustrator 25.4.1, SVG Export Plug-In . SVG Version: 6.00 Build 0)  -->
<svg version="1.1" id="Camada_1" xmlns="http://www.w3.org/2000/svg" xmlns:xlink="http://www.w3.org/1999/xlink" x="0px" y="0px"
	 viewBox="0 0 300 48" style="enable-background:new 0 0 300 48;" xml:space="preserve">
<g>
	<g>
		<path d="M41.6,26.7l6.9,2.1c-0.5,1.9-1.2,3.6-2.2,4.9c-1,1.3-2.2,2.3-3.7,3c-1.5,0.7-3.4,1-5.7,1c-2.8,0-5.1-0.4-6.8-1.2
			s-3.3-2.2-4.6-4.3c-1.3-2-1.9-4.6-1.9-7.8c0-4.2,1.1-7.5,3.4-9.8c2.3-2.3,5.4-3.4,9.6-3.4c3.2,0,5.8,0.7,7.6,2
			c1.8,1.3,3.2,3.3,4.1,6l-7,1.6c-0.2-0.8-0.5-1.4-0.8-1.7c-0.4-0.6-1-1.1-1.6-1.4c-0.6-0.3-1.4-0.5-2.2-0.5c-1.8,0-3.2,0.7-4.1,2.2
			c-0.7,1.1-1.1,2.8-1.1,5c0,2.8,0.4,4.8,1.3,5.8c0.9,1.1,2.1,1.6,3.6,1.6c1.5,0,2.7-0.4,3.4-1.3S41.3,28.3,41.6,26.7z"/>
		<path d="M52.4,11.6h7.9v9H69v-9h8v25.6h-8V26.8h-8.7v10.4h-7.9V11.6z"/>
		<path d="M82.2,11.6h21.2V17H90.2v4.1h12.3v5.2H90.2v5.1h13.7v5.8H82.2V11.6z"/>
		<path d="M125.2,26.7l6.9,2.1c-0.5,1.9-1.2,3.6-2.2,4.9c-1,1.3-2.2,2.3-3.7,3c-1.5,0.7-3.4,1-5.7,1c-2.8,0-5.1-0.4-6.8-1.2
			s-3.3-2.2-4.6-4.3c-1.3-2-1.9-4.6-1.9-7.8c0-4.2,1.1-7.5,3.4-9.8c2.3-2.3,5.4-3.4,9.6-3.4c3.2,0,5.8,0.7,7.6,2
			c1.8,1.3,3.2,3.3,4.1,6l-7,1.6c-0.2-0.8-0.5-1.4-0.8-1.7c-0.4-0.6-1-1.1-1.6-1.4c-0.6-0.3-1.4-0.5-2.2-0.5c-1.8,0-3.2,0.7-4.1,2.2
			c-0.7,1.1-1.1,2.8-1.1,5c0,2.8,0.4,4.8,1.3,5.8c0.9,1.1,2.1,1.6,3.6,1.6c1.5,0,2.7-0.4,3.4-1.3S124.8,28.3,125.2,26.7z"/>
		<path d="M136,11.6h7.9v9.7l8.3-9.7h10.5l-9.4,9.7l9.8,16h-9.8L148,26.7l-4.1,4.3v6.3H136V11.6z"/>
		<path d="M164,25.1h10.4v5.5H164V25.1z"/>
		<path d="M178.1,11.6h7.9v25.6h-7.9V11.6z"/>
		<path d="M191.7,11.6h7.4l9.7,14.2V11.6h7.5v25.6h-7.5l-9.6-14.1v14.1h-7.5V11.6z"/>
		<path d="M239.2,19l-6.7-1.2c0.6-2.1,1.6-3.8,3.2-4.9c1.6-1.1,3.8-1.7,6.8-1.7c3.3,0,5.8,0.6,7.3,1.9c1.5,1.2,2.2,2.8,2.2,4.7
			c0,1.1-0.3,2.1-0.9,3c-0.6,0.9-1.5,1.7-2.7,2.4c1,0.2,1.7,0.5,2.3,0.9c0.9,0.5,1.5,1.2,2,2.1c0.5,0.9,0.7,1.9,0.7,3.1
			c0,1.5-0.4,2.9-1.2,4.3c-0.8,1.4-1.9,2.4-3.4,3.2c-1.5,0.7-3.4,1.1-5.8,1.1c-2.3,0-4.2-0.3-5.5-0.8s-2.5-1.3-3.3-2.4
			c-0.9-1.1-1.5-2.4-2-4l7.1-0.9c0.3,1.4,0.7,2.4,1.3,3c0.6,0.6,1.3,0.8,2.2,0.8c1,0,1.8-0.3,2.4-1c0.6-0.7,1-1.6,1-2.8
			c0-1.2-0.3-2.1-0.9-2.8s-1.4-1-2.5-1c-0.6,0-1.3,0.1-2.3,0.4l0.4-5.1c0.4,0.1,0.7,0.1,0.9,0.1c0.9,0,1.7-0.3,2.3-0.9
			c0.6-0.6,0.9-1.3,0.9-2.1c0-0.8-0.2-1.4-0.7-1.9c-0.5-0.5-1.1-0.7-1.9-0.7c-0.8,0-1.5,0.3-2,0.8C239.8,16.8,239.4,17.7,239.2,19z"
			/>
		<path d="M272.3,11.1v26.1h-7.2V20.1c-1.2,0.9-2.3,1.6-3.4,2.2c-1.1,0.5-2.5,1.1-4.1,1.6V18c2.4-0.8,4.3-1.7,5.6-2.8
			c1.3-1.1,2.4-2.4,3.1-4.1H272.3z"/>
	</g>
</g>
<g>
	<g>
		<path d="M299.5,6.3v37.1h-17.2V39h8V10.6h-8V6.3H299.5z"/>
	</g>
</g>
<g>
	<g>
		<path d="M0.8,43.3V6.2h17.2v4.4h-8v28.4h8v4.4H0.8z"/>
	</g>
</g>
</svg>
