<?xml version="1.0" encoding="utf-8"?>
<!-- Generator: Adobe Illustrator 25.4.1, SVG Export Plug-In . SVG Version: 6.00 Build 0)  -->
<svg version="1.1" id="Camada_1" xmlns="http://www.w3.org/2000/svg" xmlns:xlink="http://www.w3.org/1999/xlink" x="0px" y="0px"
	 viewBox="0 0 765.6 123.7" style="enable-background:new 0 0 765.6 123.7;" xml:space="preserve">
<style type="text/css">
	.st0{fill:#FFFFFF;}
</style>
<g>
	<path class="st0" d="M126,80.7l-9.9,5.7l-10.7,6.2c-3.5,2-7.8-0.5-7.8-4.5v-7.4h-10c-2.9,0-5.3-2.4-5.3-5.3s2.4-5.3,5.3-5.3h10
		v-6.8c0-4,4.3-6.5,7.8-4.5l10.7,6.2l8.7,5.1h36.1v-0.3c0-22.1-18.1-40.2-40.2-40.2H95c-22.1,0-40.2,18.1-40.2,40.2v11.5
		c0,22.1,18.1,40.2,40.2,40.2h25.8c22.1,0,40.2-18.1,40.2-40.2v-0.5L126,80.7L126,80.7z"/>
	<g>
		<path class="st0" d="M692.1,28.8h13.4c0.5,1.2,1.4,1.9,2.6,2.3c1.3,0.4,3.4,0.6,6.2,0.6c2.9,0,5-0.2,6.2-0.6s1.8-1.1,1.8-2.1v-0.6
			c0-1-0.6-1.7-1.9-2c-1.2-0.4-3.3-0.6-6.1-0.6h-5.8v-8.9h5.3c2.6,0,4.4-0.2,5.3-0.6c1-0.4,1.5-1,1.5-1.9v-0.6
			c0-0.9-0.5-1.5-1.6-1.8s-2.7-0.5-4.9-0.5s-3.9,0.2-5.3,0.5c-1.3,0.3-2.2,1-2.6,2.2h-13.4c0.5-4.6,2.6-7.7,6.3-9.5
			c3.7-1.7,8.7-2.6,14.8-2.6c6.3,0,11.1,0.9,14.4,2.6c3.3,1.7,5,4.4,5,8c0,2-0.6,3.6-1.8,5s-2.8,2.4-4.9,3.2c2.5,0.7,4.5,1.7,6,3.1
			s2.3,3.2,2.3,5.5c0,4.1-1.8,7.1-5.3,9.1c-3.5,1.9-8.7,2.9-15.6,2.9c-7,0-12.4-1-16.1-2.9C694.5,36.5,692.4,33.3,692.1,28.8z"/>
		<path class="st0" d="M739.3,9.1l10.3-6.2h13.2v37.6h-13.2v-27l-10.3,6.3V9.1z"/>
	</g>
	<g>
		<polygon class="st0" points="442,121.6 467.1,121.6 467.1,97.7 474.3,97.7 495.4,121.6 526.1,121.6 494.7,87.8 500.8,81 442,81 		
			"/>
		<rect x="528" y="81" class="st0" width="37.4" height="11.8"/>
		<rect x="442" y="29.3" class="st0" width="25.1" height="40.7"/>
		<polygon class="st0" points="523,55.8 495.2,55.8 483.6,70.1 510.7,70.1 		"/>
		<path class="st0" d="M421.2,62.2c-7-4.3-16.4-6.5-28.2-6.5c-7.1,0-13.2,0.6-18.5,1.9c-5.3,1.3-9.6,3.4-13,6.4
			c-1.9,1.6-3.4,3.6-4.8,5.9h72C426.8,66.9,424.3,64.2,421.2,62.2z"/>
		<path class="st0" d="M351.4,89.1c0,5.8,0.8,13.2,2.5,17.1s4.2,6.9,7.6,9.2c3.4,2.3,7.8,3.9,13,4.8s11.4,1.4,18.5,1.4
			c13,0,22.7-1.8,29.2-5.4s10.2-9.1,11-16.4h-25.1c-0.7,1.7-1.9,3.1-3.9,4.1c-1.9,1-5.7,1.5-11.2,1.5c-5.6,0-11.9-0.6-14.5-1.8
			c-2.7-1.2-4-3.9-4-8.1v-10c0-1.7,0.2-3.2,0.7-4.4h-23.1C351.6,83.5,351.4,86.1,351.4,89.1z"/>
		<path class="st0" d="M227.7,84.2v37.3h25.1V81H227C227.5,81.9,227.7,83,227.7,84.2z"/>
		<path class="st0" d="M333.3,63.8c-3.5-3-7.7-5-12.7-6.3c-5-1.2-10.7-1.8-17-1.8c-13.6,0-23.9,3.2-30.9,9.5c-1.5,1.4-2.9,3-4.1,4.8
			h69.9C337,67.7,335.3,65.6,333.3,63.8z"/>
		<path class="st0" d="M172.8,121.6h25.1V84.2c0-1.3,0.2-2.4,0.7-3.3h-25.8V121.6z"/>
		<path class="st0" d="M245.8,60.8c-4.7-3.2-11.6-4.8-20.8-4.8c-6,0-11.5,0.9-16.4,2.7s-8.4,4.5-10.7,8.1V29.3h-25.1v40.7h78.6
			C250.2,66.1,248.3,62.6,245.8,60.8z"/>
		<rect x="582" y="81" class="st0" width="25.1" height="40.6"/>
		<path class="st0" d="M262.2,89.2c0,10.9,3.9,21.2,10.9,25.6c7,4.5,17.2,6.7,30.9,6.7c12,0,21-2.2,27.4-5.6
			c7.7-4.1,10.6-10.7,12.7-18.1h-24.4c-0.9,2-2.5,3.4-4.8,4.3s-6,1.4-11.4,1.4c-5.7,0-10.9-0.8-13.6-2.3c-2.6-1.5-3.9-4.4-3.9-8.5
			v-0.9h58v-3.9c0-2.5-0.2-4.8-0.6-6.9h-80.3C262.5,83.5,262.2,86.2,262.2,89.2z"/>
		<path class="st0" d="M675,84.2v37.3h25.1V81h-25.8C674.8,81.9,675,83,675,84.2z"/>
		<path class="st0" d="M693.1,62.1c-4.7-4.3-11.6-6.4-20.8-6.4c-6.3,0-12,1.3-17,3.9c-4.5,2.4-7.8,5.8-9.9,10.3h52.7
			C696.9,66.8,695.2,64.2,693.1,62.1z"/>
		<rect x="582" y="55.8" class="st0" width="25.1" height="14.2"/>
		<rect x="620.1" y="55.8" class="st0" width="24.6" height="14.2"/>
		<path class="st0" d="M620.1,121.6h25.1V84.2c0-1.3,0.2-2.4,0.7-3.3h-25.8V121.6z"/>
	</g>
</g>
</svg>
