<svg xmlns="http://www.w3.org/2000/svg" viewBox="0 0 338.15 170.24"><defs><style>.cls-1{fill:#009cde;}.cls-2{fill:#fff;}</style></defs><g id="Camada_2" data-name="Camada 2"><g id="Layer_1" data-name="Layer 1"><path class="cls-1" d="M16.52,153.69a7.52,7.52,0,0,1-2.08,5.71q-2.08,2-6.31,2H4.45c-.23,0-.38,0-.43.11a1,1,0,0,0-.09.53v6.77a1.43,1.43,0,0,1-.16.84.75.75,0,0,1-.61.2H.65c-.37,0-.57-.1-.6-.29a5.87,5.87,0,0,1,0-.84V147a1.16,1.16,0,0,1,.13-.64c.09-.13.3-.2.65-.2h6.9Q16.52,146.2,16.52,153.69Zm-4-.2a4.72,4.72,0,0,0-.4-2,3.79,3.79,0,0,0-1.09-1.37,4.36,4.36,0,0,0-1.59-.77,7.77,7.77,0,0,0-2-.24h-3a.57.57,0,0,0-.47.21.65.65,0,0,0-.12.37v8c0,.27,0,.45.13.51a.9.9,0,0,0,.52.1h3.9a4,4,0,0,0,2.91-1.12A4.91,4.91,0,0,0,12.55,153.49Z"/><path class="cls-1" d="M35.68,153.08a6,6,0,0,1-.42,2.28,6.87,6.87,0,0,1-1.07,1.81,6.08,6.08,0,0,1-1.4,1.26,4.6,4.6,0,0,1-1.44.64,1.2,1.2,0,0,0-.38.15s0,.14.13.34l4.45,9.13a1.63,1.63,0,0,1,.26.88c-.05.16-.23.25-.55.25H32.39a.69.69,0,0,1-.6-.21,3.66,3.66,0,0,1-.34-.67l-4.13-8.64a.56.56,0,0,0-.55-.32H23.45c-.17,0-.27,0-.3.1a.93.93,0,0,0,0,.41v8.29a1.42,1.42,0,0,1-.17.84.75.75,0,0,1-.61.2H19.81c-.37,0-.57-.1-.6-.29a5.87,5.87,0,0,1-.05-.84V147a1.16,1.16,0,0,1,.13-.64c.09-.13.3-.2.65-.2h6.9q4.35,0,6.59,1.79A6.14,6.14,0,0,1,35.68,153.08Zm-3.94,0a3.89,3.89,0,0,0-.4-1.85,3.26,3.26,0,0,0-1.1-1.2,5,5,0,0,0-1.61-.66,8.83,8.83,0,0,0-1.95-.21h-3a.57.57,0,0,0-.47.21.64.64,0,0,0-.11.37v6.55c0,.3,0,.48.12.53a1.18,1.18,0,0,0,.52.08h4a4.41,4.41,0,0,0,2.88-.93A3.48,3.48,0,0,0,31.74,153.06Z"/><path class="cls-1" d="M56,165.67a6.75,6.75,0,0,1-1.18,2.18,5.31,5.31,0,0,1-1.66,1.35,7.84,7.84,0,0,1-1.9.71,10.8,10.8,0,0,1-1.89.28c-.61,0-1.14.05-1.6.05a21.91,21.91,0,0,1-2.72-.2,8.54,8.54,0,0,1-2.89-.9,6.48,6.48,0,0,1-2.29-2,6.25,6.25,0,0,1-.93-3.63v-9.52q0-4.32,2.14-6.2t6.6-1.89a14.21,14.21,0,0,1,3.37.39,7.52,7.52,0,0,1,2.8,1.3A6.26,6.26,0,0,1,55.79,150a9.46,9.46,0,0,1,.69,3.86v8.61A9.93,9.93,0,0,1,56,165.67Zm-3.42-11.6a5.3,5.3,0,0,0-1.2-3.85A4.71,4.71,0,0,0,47.89,149a7.39,7.39,0,0,0-2.42.34,3.87,3.87,0,0,0-1.58,1A3.75,3.75,0,0,0,43,152a9,9,0,0,0-.26,2.24v8.42a4.27,4.27,0,0,0,.46,2.08,3.76,3.76,0,0,0,1.18,1.37,4.66,4.66,0,0,0,1.61.75,7.39,7.39,0,0,0,1.8.22,8.53,8.53,0,0,0,1.85-.19,3.64,3.64,0,0,0,1.53-.74,3.56,3.56,0,0,0,1-1.54,7.3,7.3,0,0,0,.37-2.56Z"/><path class="cls-1" d="M78,169.62c-.09.2-.28.28-.58.26l-2.33,0a1.05,1.05,0,0,1-.67-.18,2.41,2.41,0,0,1-.49-.63L64.55,153.3c-.26-.43-.44-.66-.55-.69s-.16.21-.16.72v15.36a2.15,2.15,0,0,1-.13.88.61.61,0,0,1-.58.25H61a1.7,1.7,0,0,1-.56-.1c-.21-.06-.31-.36-.31-.87V147.24a1.16,1.16,0,0,1,0-.23,2.21,2.21,0,0,1,.06-.34.81.81,0,0,1,.16-.32.41.41,0,0,1,.34-.15H63a3.3,3.3,0,0,1,.61,0,.8.8,0,0,1,.34.11.65.65,0,0,1,.19.21l.24.32,9.42,16c.24.41.41.59.52.53s.16-.39.16-1V147.24a2.44,2.44,0,0,1,.1-.71.37.37,0,0,1,.42-.33h2.48c.28,0,.46.09.53.26a2,2,0,0,1,.12.81v21.42A2.55,2.55,0,0,1,78,169.62Z"/><path class="cls-1" d="M96.85,149.08c-.07.08-.26.12-.56.12H91.06a1,1,0,0,0-.61.12c-.09.07-.13.24-.13.5v18.93a1.83,1.83,0,0,1-.13.86c-.09.14-.31.21-.68.21H87.29c-.37,0-.6-.06-.7-.18a1.75,1.75,0,0,1-.14-.89V149.82a.7.7,0,0,0-.13-.5,1,1,0,0,0-.61-.12H80.54c-.3,0-.49,0-.56-.11a.53.53,0,0,1-.11-.37v-2c0-.24.06-.38.19-.44a2.23,2.23,0,0,1,.71-.08H96a2.92,2.92,0,0,1,.71.07c.15,0,.22.17.22.39v2.06A.52.52,0,0,1,96.85,149.08Z"/><path class="cls-1" d="M115.51,165.67a6.75,6.75,0,0,1-1.18,2.18,5.2,5.2,0,0,1-1.66,1.35,7.69,7.69,0,0,1-1.9.71,10.53,10.53,0,0,1-1.89.28c-.61,0-1.14.05-1.59.05a21.93,21.93,0,0,1-2.73-.2,8.61,8.61,0,0,1-2.89-.9,6.48,6.48,0,0,1-2.29-2,6.25,6.25,0,0,1-.93-3.63v-9.52q0-4.32,2.14-6.2t6.6-1.89a14.15,14.15,0,0,1,3.37.39,7.64,7.64,0,0,1,2.81,1.3,6.33,6.33,0,0,1,1.9,2.45,9.46,9.46,0,0,1,.69,3.86v8.61A9.93,9.93,0,0,1,115.51,165.67Zm-3.42-11.6a5.3,5.3,0,0,0-1.2-3.85,4.71,4.71,0,0,0-3.52-1.21,7.33,7.33,0,0,0-2.41.34,3.52,3.52,0,0,0-2.45,2.61,9,9,0,0,0-.26,2.24v8.42a4.27,4.27,0,0,0,.46,2.08,3.76,3.76,0,0,0,1.18,1.37,4.62,4.62,0,0,0,1.62.75,7.25,7.25,0,0,0,1.79.22,8.53,8.53,0,0,0,1.85-.19,3.74,3.74,0,0,0,1.54-.74,3.63,3.63,0,0,0,1-1.54,7.3,7.3,0,0,0,.37-2.56Z"/><path class="cls-1" d="M142.19,153.69a7.48,7.48,0,0,1-2.08,5.71q-2.09,2-6.31,2h-3.68c-.23,0-.38,0-.43.11a1.11,1.11,0,0,0-.08.53v6.77a1.52,1.52,0,0,1-.16.84.79.79,0,0,1-.62.2h-2.51c-.37,0-.57-.1-.6-.29a5.87,5.87,0,0,1,0-.84V147a1.25,1.25,0,0,1,.13-.64c.09-.13.3-.2.65-.2h6.9Q142.19,146.2,142.19,153.69Zm-4-.2a4.58,4.58,0,0,0-.4-2,3.87,3.87,0,0,0-1.08-1.37,4.33,4.33,0,0,0-1.6-.77,7.66,7.66,0,0,0-1.95-.24h-3a.58.58,0,0,0-.47.21.72.72,0,0,0-.11.37v8c0,.27,0,.45.13.51a.87.87,0,0,0,.51.1h3.91a4,4,0,0,0,2.9-1.12A4.87,4.87,0,0,0,138.22,153.49Z"/><path class="cls-1" d="M159.2,169.67a1.31,1.31,0,0,1-.69.15H156c-.3,0-.48-.06-.53-.16a5.55,5.55,0,0,1-.24-.68l-1.39-4.52h-8L144.42,169a2.37,2.37,0,0,1-.3.68.66.66,0,0,1-.51.16h-2.33a.37.37,0,0,1-.36-.16c-.06-.11,0-.41.14-.91l6.55-21.51a1.86,1.86,0,0,1,.4-.79,1.06,1.06,0,0,1,.79-.25h2.65a1,1,0,0,1,.77.25,2.27,2.27,0,0,1,.42.79l6.55,21.51C159.36,169.27,159.37,169.57,159.2,169.67Zm-9.4-18.85-3.16,10.77h6.29Z"/><path class="cls-1" d="M178.19,153.08a6,6,0,0,1-.42,2.28,6.87,6.87,0,0,1-1.07,1.81,5.88,5.88,0,0,1-1.4,1.26,4.6,4.6,0,0,1-1.44.64,1.2,1.2,0,0,0-.38.15s0,.14.13.34l4.45,9.13a1.63,1.63,0,0,1,.26.88c0,.16-.23.25-.55.25H174.9a.69.69,0,0,1-.6-.21,3.66,3.66,0,0,1-.34-.67l-4.13-8.64a.55.55,0,0,0-.55-.32H166c-.17,0-.27,0-.3.1a.93.93,0,0,0,0,.41v8.29a1.42,1.42,0,0,1-.17.84.75.75,0,0,1-.61.2h-2.51c-.37,0-.57-.1-.6-.29a5.87,5.87,0,0,1-.05-.84V147a1.16,1.16,0,0,1,.13-.64c.09-.13.3-.2.65-.2h6.9q4.35,0,6.59,1.79A6.14,6.14,0,0,1,178.19,153.08Zm-3.94,0a3.89,3.89,0,0,0-.4-1.85,3.26,3.26,0,0,0-1.1-1.2,5,5,0,0,0-1.61-.66,8.83,8.83,0,0,0-1.95-.21h-3a.57.57,0,0,0-.47.21.64.64,0,0,0-.11.37v6.55c0,.3,0,.48.12.53a1.18,1.18,0,0,0,.52.08h4a4.41,4.41,0,0,0,2.88-.93A3.48,3.48,0,0,0,174.25,153.06Z"/><path class="cls-1" d="M198.53,169.67a1.37,1.37,0,0,1-.7.15h-2.55c-.3,0-.47-.06-.53-.16s-.13-.34-.24-.68l-1.39-4.52h-8L183.74,169a2.77,2.77,0,0,1-.29.68.68.68,0,0,1-.52.16h-2.32c-.2,0-.32-.06-.37-.16s0-.41.14-.91l6.55-21.51a1.86,1.86,0,0,1,.4-.79,1.06,1.06,0,0,1,.79-.25h2.65a1,1,0,0,1,.77.25,2.27,2.27,0,0,1,.42.79l6.55,21.51C198.68,169.27,198.69,169.57,198.53,169.67Zm-9.41-18.85L186,161.59h6.29Z"/><path class="cls-1" d="M223.9,165.67a7,7,0,0,1-1.18,2.18,5.31,5.31,0,0,1-1.66,1.35,7.91,7.91,0,0,1-1.91.71,10.56,10.56,0,0,1-1.88.28c-.61,0-1.15.05-1.6.05a21.93,21.93,0,0,1-2.73-.2,8.49,8.49,0,0,1-2.88-.9,6.31,6.31,0,0,1-2.29-2,6.18,6.18,0,0,1-.94-3.63v-9.52q0-4.32,2.15-6.2c1.43-1.26,3.62-1.89,6.59-1.89a14.09,14.09,0,0,1,3.37.39,7.56,7.56,0,0,1,2.81,1.3,6.24,6.24,0,0,1,1.9,2.45,9.28,9.28,0,0,1,.7,3.86v8.61A9.93,9.93,0,0,1,223.9,165.67Zm-3.42-11.6a5.3,5.3,0,0,0-1.2-3.85,4.75,4.75,0,0,0-3.53-1.21,7.37,7.37,0,0,0-2.41.34A3.49,3.49,0,0,0,210.9,152a8.56,8.56,0,0,0-.26,2.24v8.42a4.38,4.38,0,0,0,.45,2.08,3.86,3.86,0,0,0,1.18,1.37,4.79,4.79,0,0,0,1.62.75,7.27,7.27,0,0,0,1.8.22,8.44,8.44,0,0,0,1.84-.19,3.68,3.68,0,0,0,1.54-.74,3.63,3.63,0,0,0,1-1.54,7.28,7.28,0,0,0,.38-2.56Z"/><path class="cls-1" d="M254.54,169.61c-.09.14-.29.21-.61.21h-2.17a1.15,1.15,0,0,1-.83-.21,1.33,1.33,0,0,1-.2-.86V152.33c0-.3,0-.45-.1-.45s-.18.14-.35.42l-4.82,8.39a6.82,6.82,0,0,1-.45.71.5.5,0,0,1-.39.16h-.71a.56.56,0,0,1-.47-.16c-.08-.11-.22-.36-.44-.75l-4.56-8.19c-.34-.56-.51-.54-.51.07V169a1.3,1.3,0,0,1-.12.63c-.07.14-.29.21-.65.21h-2.08a1.59,1.59,0,0,1-.72-.15c-.2-.1-.31-.4-.31-.92V147.24a1.24,1.24,0,0,1,.2-.84.83.83,0,0,1,.61-.2h2.45a1.55,1.55,0,0,1,.58.1,1.3,1.3,0,0,1,.49.52l5.8,9.64c.15.24.3.25.46,0l5.7-9.61a1.18,1.18,0,0,1,1-.68H254c.37,0,.57.1.61.28a3.39,3.39,0,0,1,.07.82v21.64A1.38,1.38,0,0,1,254.54,169.61Z"/><path class="cls-1" d="M274.18,166.56a6.19,6.19,0,0,1-2.05,2.34,7,7,0,0,1-2.71,1.08,16,16,0,0,1-2.75.26,12.68,12.68,0,0,1-2.81-.34,7.85,7.85,0,0,1-2.64-1.16,6.5,6.5,0,0,1-2-2.21,7.07,7.07,0,0,1-.78-3.49V147a1.2,1.2,0,0,1,.12-.63.59.59,0,0,1,.43-.21h2.45a.82.82,0,0,1,.62.21,1.34,1.34,0,0,1,.19.86v14.55a5.5,5.5,0,0,0,1.23,3.85,4.09,4.09,0,0,0,3.16,1.34,5.57,5.57,0,0,0,2.21-.37,3.25,3.25,0,0,0,1.35-1,4,4,0,0,0,.7-1.64,12.1,12.1,0,0,0,.19-2.2V147a1.33,1.33,0,0,1,.11-.63.61.61,0,0,1,.44-.21h2.51a.82.82,0,0,1,.62.21,1.34,1.34,0,0,1,.19.86v15.22A8.68,8.68,0,0,1,274.18,166.56Z"/><path class="cls-1" d="M296.64,169.62c-.09.2-.28.28-.59.26l-2.32,0a1.08,1.08,0,0,1-.68-.18,2.21,2.21,0,0,1-.48-.63l-9.39-15.74c-.25-.43-.44-.66-.55-.69s-.16.21-.16.72v15.36a2,2,0,0,1-.13.88c-.08.16-.27.25-.57.25h-2.1a1.8,1.8,0,0,1-.57-.1c-.2-.06-.3-.36-.3-.87V147.24a2.3,2.3,0,0,1,0-.23,1.47,1.47,0,0,1,.07-.34.81.81,0,0,1,.16-.32.39.39,0,0,1,.34-.15h2.26a3.37,3.37,0,0,1,.61,0,.85.85,0,0,1,.34.11.65.65,0,0,1,.19.21,2.91,2.91,0,0,0,.24.32l9.42,16c.24.41.41.59.52.53s.16-.39.16-1V147.24a2.44,2.44,0,0,1,.1-.71c.06-.24.2-.35.41-.33h2.49a.52.52,0,0,1,.53.26,2.06,2.06,0,0,1,.11.81v21.42A2.6,2.6,0,0,1,296.64,169.62Z"/><path class="cls-1" d="M316.31,166.36a6.23,6.23,0,0,1-2.08,2.23,7.06,7.06,0,0,1-2.66,1,16.73,16.73,0,0,1-2.58.23H301.5a.78.78,0,0,1-.56-.25,1.24,1.24,0,0,1-.24-.88V147.27a2.29,2.29,0,0,1,.11-.77c.08-.2.26-.3.56-.3h6.55a17.76,17.76,0,0,1,3.47.33,8.1,8.1,0,0,1,2.95,1.16,5.86,5.86,0,0,1,2.05,2.32,8.31,8.31,0,0,1,.76,3.81v8.64A7.73,7.73,0,0,1,316.31,166.36Zm-3-12.26a4.38,4.38,0,0,0-1.44-3.71A6.24,6.24,0,0,0,308,149.3h-2.68c-.34,0-.55,0-.63.16a1,1,0,0,0-.11.52v16a1,1,0,0,0,.14.55c.1.13.33.19.7.19H308a13.08,13.08,0,0,0,1.87-.14,4.23,4.23,0,0,0,1.69-.65,3.54,3.54,0,0,0,1.23-1.43,5.59,5.59,0,0,0,.47-2.48Z"/><path class="cls-1" d="M337.7,165.67a7,7,0,0,1-1.18,2.18,5.31,5.31,0,0,1-1.66,1.35,7.91,7.91,0,0,1-1.91.71,10.56,10.56,0,0,1-1.88.28c-.61,0-1.15.05-1.6.05a22.19,22.19,0,0,1-2.73-.2,8.49,8.49,0,0,1-2.88-.9,6.31,6.31,0,0,1-2.29-2,6.18,6.18,0,0,1-.94-3.63v-9.52q0-4.32,2.15-6.2t6.6-1.89a14.21,14.21,0,0,1,3.37.39,7.59,7.59,0,0,1,2.8,1.3,6.24,6.24,0,0,1,1.9,2.45,9.28,9.28,0,0,1,.7,3.86v8.61A9.93,9.93,0,0,1,337.7,165.67Zm-3.42-11.6a5.3,5.3,0,0,0-1.2-3.85,4.75,4.75,0,0,0-3.53-1.21,7.37,7.37,0,0,0-2.41.34A3.53,3.53,0,0,0,324.7,152a8.56,8.56,0,0,0-.26,2.24v8.42a4.38,4.38,0,0,0,.45,2.08,3.86,3.86,0,0,0,1.18,1.37,4.79,4.79,0,0,0,1.62.75,7.27,7.27,0,0,0,1.8.22,8.44,8.44,0,0,0,1.84-.19,3.41,3.41,0,0,0,2.58-2.28,7.54,7.54,0,0,0,.37-2.56Z"/><path class="cls-2" d="M24.69,32.83H21.15c-.85,0-.8-.22-1.07-1.16l-1.93-6.28H7L5.1,31.67c-.27.94-.4,1.16-1.12,1.16H.75c-.54,0-.72-.14-.32-1.47L9.54,1.44C9.85.41,10.17,0,11.19,0h3.69c1,0,1.29.41,1.65,1.44l9.11,29.92C26.08,32.78,25.54,32.83,24.69,32.83ZM12.59,6.42l-4.4,15h8.74Z"/><path class="cls-2" d="M47.34,22.25H34c0,5.19,2.55,7.31,6.77,7.31a19.77,19.77,0,0,0,6.63-1c.81-.32,1.26-.09,1.26.4v2.25c0,.81-.32,1-1.48,1.34a31.35,31.35,0,0,1-6.63.77c-7.72,0-11.66-3.46-11.66-12.34,0-8.61,3.58-12.91,10.39-12.91,6.24,0,9.87,3.44,9.87,9.46v2.78C49.18,21.62,49,22.25,47.34,22.25ZM39.23,11.31c-3.59,0-5,3-5.07,6.63,0,.63,0,.91.58.91h9c.46,0,.5-.23.5-.86C44.21,13.68,42.9,11.31,39.23,11.31Z"/><path class="cls-2" d="M66.49,11.7c-.09.45-.26.68-.66.68a7.39,7.39,0,0,0-3.64.94c-2.06,1.21-3.41,2.87-3.41,4.31v13.5c0,1.17,0,1.7-.89,1.7H55.06c-1,0-1.25-.5-1.25-1.66V10.09c0-.89.17-1.39,1.08-1.39h2.86c.59,0,1.07.27,1.07,1.17v2.28a8.48,8.48,0,0,1,7.09-3.76c.36,0,.76,0,.72.5Z"/><path class="cls-2" d="M80,33.33c-7,0-11-2.88-11-12.43,0-9.38,4.43-12.82,11.21-12.82s10.45,3.58,10.45,12.78C90.72,28.93,86.72,33.33,80,33.33ZM85.6,18.39c0-4-1.43-6.87-5.51-6.87-3.27,0-5.7,2.21-5.7,7.1V23c0,4.89,2.56,6.86,5.74,6.86,3.41,0,5.47-2.95,5.47-7.4Z"/><path class="cls-2" d="M107.62,33.33c-3.41,0-5.65-1-7.26-3V40.72c0,1.08-.18,1.48-.8,1.48h-3c-1.07,0-1.21-.35-1.21-1.48V10.32c0-1,0-1.62,1.17-1.62h2.73c.67,0,1.08.33,1.08,1.26v1.66a8.71,8.71,0,0,1,7.53-3.54c5,0,7.76,5,7.76,12.6C115.65,29.87,112.24,33.33,107.62,33.33Zm2.74-14.27c0-4.49-1.7-7.58-4.76-7.58-3.49,0-4.87,3.32-4.87,5.61v8.7a5,5,0,0,0,4.83,4.08c3.23,0,4.8-2.69,4.8-7Z"/><path class="cls-2" d="M130.54,33.33c-6.95,0-11-2.88-11-12.43,0-9.38,4.43-12.82,11.21-12.82s10.45,3.58,10.45,12.78C141.22,28.93,137.22,33.33,130.54,33.33Zm5.56-14.94c0-4-1.43-6.87-5.51-6.87-3.28,0-5.7,2.21-5.7,7.1V23c0,4.89,2.55,6.86,5.74,6.86,3.4,0,5.47-2.95,5.47-7.4Z"/><path class="cls-2" d="M158.49,11.7c-.09.45-.28.68-.68.68a7.45,7.45,0,0,0-3.64.94c-2,1.21-3.39,2.87-3.39,4.31v13.5c0,1.17-.06,1.7-.91,1.7h-2.82c-1,0-1.25-.5-1.25-1.66V10.09c0-.89.17-1.39,1.07-1.39h2.86c.59,0,1.08.27,1.08,1.17v2.28a8.48,8.48,0,0,1,7.09-3.76c.36,0,.77,0,.72.5Z"/><path class="cls-2" d="M172.79,12.79h-4.13V27.32c0,1.47.72,2.37,1.93,2.37a7.54,7.54,0,0,0,2.25-.27c.49-.09.84,3.19.44,3.36a14.69,14.69,0,0,1-4.21.55c-4.31,0-5.61-2.92-5.61-5.89V12.74h-2.25c-.57,0-.71-.36-.71-1v-1.7c0-.71.14-.89,1-.89h2.15V4.71c0-.79.55-1,1.27-1.11l2.42-.46c.94-.17,1.21.23,1.21,1.13V9.2h4.31c.84,0,1,.4,1,1v1.7C173.86,12.47,173.73,12.79,172.79,12.79Z"/><path class="cls-2" d="M188,33.33c-6.94,0-11-2.88-11-12.43,0-9.38,4.45-12.82,11.22-12.82s10.45,3.58,10.45,12.78C198.71,28.93,194.73,33.33,188,33.33Zm5.56-14.94c0-4-1.42-6.87-5.5-6.87-3.28,0-5.7,2.21-5.7,7.1V23c0,4.89,2.55,6.86,5.73,6.86,3.42,0,5.47-2.95,5.47-7.4Z"/><path class="cls-2" d="M4.71,75.84H1.24c-.8,0-1-.26-1-1.25V44c0-.86.23-1,1.22-1H4.74c.8,0,.91.28.91,1.26V74.81C5.65,75.58,5.51,75.84,4.71,75.84Z"/><path class="cls-2" d="M29.76,75.84H26.85c-.75,0-1.16-.49-1.16-1.61V60c0-2.38-1.12-4.44-4.22-4.44a5,5,0,0,0-5,5.12V74.14c0,1.17,0,1.7-.9,1.7H12.77c-1,0-1.25-.49-1.25-1.66V53.11c0-.9.17-1.39,1.07-1.39h2.87c.77,0,1.08.76,1.08,2.81a8.13,8.13,0,0,1,7.13-3.35c3.81,0,7.09,2,7.09,7.72V73.77C30.76,75.26,30.57,75.84,29.76,75.84Z"/><path class="cls-2" d="M47.12,55.8H43V70.34c0,1.46.72,2.37,1.93,2.37a7.81,7.81,0,0,0,2.24-.27c.49-.1.85,3.19.45,3.36a15.27,15.27,0,0,1-4.22.54c-4.3,0-5.6-2.91-5.6-5.88V55.75H35.55c-.58,0-.72-.36-.72-.94v-1.7c0-.71.14-.9,1-.9H38V47.72c0-.79.54-1,1.26-1.11l2.41-.45c.94-.17,1.21.23,1.21,1.12v4.93h4.31c.85,0,1,.41,1,1v1.7C48.2,55.48,48.06,55.8,47.12,55.8Z"/><path class="cls-2" d="M69.82,65.26H56.5c0,5.2,2.55,7.32,6.77,7.32a19.61,19.61,0,0,0,6.63-1c.82-.31,1.27-.08,1.27.41v2.24c0,.81-.32,1-1.49,1.35a31.64,31.64,0,0,1-6.63.76c-7.72,0-11.66-3.45-11.66-12.33,0-8.62,3.59-12.91,10.4-12.91,6.24,0,9.87,3.43,9.87,9.46v2.78C71.66,64.64,71.48,65.26,69.82,65.26ZM61.7,54.32c-3.59,0-5,3-5.07,6.64,0,.63,0,.9.59.9h9.06c.44,0,.49-.22.49-.86C66.67,56.7,65.38,54.32,61.7,54.32Z"/><path class="cls-2" d="M89,54.72c-.1.45-.27.67-.68.67a7.29,7.29,0,0,0-3.63,1c-2.07,1.2-3.42,2.86-3.42,4.31V74.14c0,1.17,0,1.7-.89,1.7H77.53c-1,0-1.25-.49-1.25-1.66V53.11c0-.9.18-1.39,1.08-1.39h2.87c.58,0,1.07.27,1.07,1.17v2.28a8.46,8.46,0,0,1,7.09-3.76c.35,0,.75,0,.71.5Z"/><path class="cls-2" d="M110.45,75.84h-2.91c-.77,0-1.17-.49-1.17-1.61V60c0-2.38-1.12-4.44-4.22-4.44a5,5,0,0,0-5,5.12V74.14c0,1.17,0,1.7-.9,1.7H93.45c-1,0-1.25-.49-1.25-1.66V53.11c0-.9.18-1.39,1.07-1.39h2.88c.76,0,1.08.76,1.08,2.81,1.51-2.1,3.71-3.35,7.13-3.35,3.81,0,7.08,2,7.08,7.72V73.77C111.44,75.26,111.26,75.84,110.45,75.84Z"/><path class="cls-2" d="M135.26,75.84h-2.83c-.67,0-1.08-.14-1.08-1.3V72.66c-.9,1.93-3.81,3.68-7.27,3.68-4.38,0-8-3.5-8-12.42,0-7.9,2.78-12.82,7.94-12.82,3.86,0,6.05,1.43,7.35,3.71v-2c0-.68.27-1.12.81-1.12H135c1.25,0,1.3.4,1.3,1.34v21C136.33,75.26,136.24,75.84,135.26,75.84ZM131,60.19c0-2-1.39-5.69-4.93-5.69-3.06,0-4.71,2.16-4.71,7.44v3.77c0,4.4,1.62,7.22,4.8,7.22S131,69.66,131,68.4Z"/><path class="cls-2" d="M151.89,76.34c-6.94,0-11-2.87-11-12.42,0-9.39,4.49-12.82,11.25-12.82,3.82,0,6.47,1,8.21,3.36.59.89-3.18,3.39-3.63,2.6a5.07,5.07,0,0,0-4.62-2.53c-3.31,0-5.74,2.22-5.74,7.11V66c0,4.89,2.56,6.87,5.74,6.87a5.43,5.43,0,0,0,4.58-2.82c.44-.95,4.08.79,3.72,1.6C158.8,74.59,156,76.34,151.89,76.34Z"/><path class="cls-2" d="M168,47.41h-3c-.89,0-1.12-.23-1.12-1.47V44.32c0-1,.19-1.31,1.22-1.31h2.81c1,0,.95.54.95,1.53v1.53C168.89,47.14,168.7,47.41,168,47.41Zm0,28.43h-3.15c-.8,0-.94-.39-.94-1.56V53.06c0-.9.19-1.34,1.08-1.34h2.83c1.07,0,1.07.36,1.07,1.34V74.28C168.89,75.45,168.84,75.84,168,75.84Z"/><path class="cls-2" d="M184.45,76.34c-6.94,0-11-2.87-11-12.42,0-9.39,4.44-12.82,11.21-12.82s10.45,3.57,10.45,12.77C195.13,71.94,191.13,76.34,184.45,76.34ZM190,61.4c0-3.95-1.43-6.87-5.51-6.87-3.27,0-5.7,2.22-5.7,7.11V66c0,4.89,2.57,6.87,5.74,6.87,3.41,0,5.47-3,5.47-7.41Z"/><path class="cls-2" d="M218,75.84H215c-.76,0-1.16-.49-1.16-1.61V60c0-2.38-1.13-4.44-4.22-4.44a5,5,0,0,0-5,5.12V74.14c0,1.17-.05,1.7-.9,1.7H201c-1,0-1.26-.49-1.26-1.66V53.11c0-.9.18-1.39,1.08-1.39h2.87c.77,0,1.08.76,1.08,2.81a8.13,8.13,0,0,1,7.13-3.35c3.8,0,7.08,2,7.08,7.72V73.77C218.94,75.26,218.76,75.84,218,75.84Z"/><path class="cls-2" d="M242.76,75.84h-2.82c-.68,0-1.08-.14-1.08-1.3V72.66c-.9,1.93-3.82,3.68-7.27,3.68-4.4,0-8-3.5-8-12.42,0-7.9,2.77-12.82,7.94-12.82,3.85,0,6.05,1.43,7.35,3.71v-2c0-.68.27-1.12.8-1.12h2.88c1.25,0,1.29.4,1.29,1.34v21C243.83,75.26,243.74,75.84,242.76,75.84ZM238.5,60.19c0-2-1.39-5.69-4.94-5.69-3.05,0-4.7,2.16-4.7,7.44v3.77c0,4.4,1.61,7.22,4.79,7.22s4.85-3.27,4.85-4.53Z"/><path class="cls-2" d="M253.16,75.84h-3c-.94,0-1.12-.21-1.12-1.47V43.74c0-.8.18-1.21,1.08-1.21H253c1.08,0,1.08.35,1.08,1.35v30.4C254.06,75.45,254,75.84,253.16,75.84Z"/><path class="cls-2" d="M285.51,75.91h-2.83c-.68,0-1.07,0-1.07-1.31V73.35c-1.67,2.07-4,3.05-7.45,3.05-4.4,0-7.85-3.5-7.85-12.41,0-7.9,2.78-12.84,7.94-12.84,3.45,0,5.65,1,7.36,3.5V44.07c0-.94.21-1.48.8-1.48h2.87c1.25,0,1.3.4,1.3,1.35V74.16C286.58,75.31,286.49,75.91,285.51,75.91ZM281.24,60c0-2.27-1.39-5.47-4.94-5.47-3.05,0-4.7,3-4.7,7.44v3.78c0,4.39,1.65,7.16,4.84,7.16a4.94,4.94,0,0,0,4.8-4Z"/><path class="cls-2" d="M309.58,65.33H296.27c0,5.2,2.56,7.3,6.77,7.3a19.9,19.9,0,0,0,6.64-1c.81-.32,1.25-.09,1.25.4v2.24c0,.81-.31,1-1.48,1.35a31.54,31.54,0,0,1-6.63.76c-7.71,0-11.67-3.46-11.67-12.33,0-8.61,3.59-12.92,10.4-12.92,6.25,0,9.88,3.46,9.88,9.47v2.77C311.43,64.7,311.25,65.33,309.58,65.33Zm-8.11-10.95c-3.59,0-5,3.06-5.07,6.63,0,.64,0,.91.59.91h9.06c.45,0,.48-.23.48-.87C306.44,56.76,305.15,54.38,301.47,54.38Z"/><path class="cls-2" d="M12,119.08H2c-.84,0-.94-.33-.94-1.17V87.82c0-1,0-1.58.9-1.58h8.74c7.67,0,12,2.25,12,8.3,0,4.13-2.15,6.82-5.16,7.85,3.15,1,5.7,3,5.7,8.07C23.2,115.84,19.93,119.08,12,119.08ZM10.56,90H7a.74.74,0,0,0-.8.81v8.64c0,.64.18.86.9.86h3.63c4.71,0,6.59-1.62,6.59-5.11C17.33,91.31,15,90,10.56,90Zm.27,14.47H7.19c-.71,0-.89.23-.89.87v9.09a.73.73,0,0,0,.81.81h3.55c4.74,0,7.21-1.16,7.21-5.16C17.87,106.34,15.21,104.49,10.83,104.49Z"/><path class="cls-2" d="M45.77,108.5H32.45c0,5.19,2.55,7.3,6.77,7.3a19.77,19.77,0,0,0,6.63-1c.81-.32,1.26-.09,1.26.4v2.25c0,.81-.32,1-1.48,1.35a32.45,32.45,0,0,1-6.63.75c-7.72,0-11.67-3.45-11.67-12.33,0-8.61,3.59-12.91,10.41-12.91,6.23,0,9.86,3.45,9.86,9.46v2.77C47.6,107.86,47.43,108.5,45.77,108.5Zm-8.12-11c-3.58,0-5,3.06-5.07,6.64,0,.64,0,.9.58.9h9.07c.44,0,.49-.23.49-.86C42.63,99.92,41.33,97.54,37.65,97.54Z"/><path class="cls-2" d="M56.31,119.08h-3c-.93,0-1.11-.23-1.11-1.49V87c0-.81.18-1.22,1.07-1.22h2.83c1.07,0,1.07.36,1.07,1.35v30.4C57.2,118.66,57.16,119.08,56.31,119.08Z"/><path class="cls-2" d="M72.76,119.56c-6.94,0-11-2.86-11-12.41,0-9.38,4.45-12.83,11.22-12.83s10.45,3.59,10.45,12.78C83.44,115.18,79.45,119.56,72.76,119.56Zm5.57-14.93c0-3.94-1.44-6.86-5.52-6.86-3.28,0-5.7,2.2-5.7,7.08v4.41c0,4.87,2.56,6.85,5.75,6.85,3.4,0,5.47-3,5.47-7.39Z"/><path class="cls-2" d="M121.24,119.08h-3.36c-.72,0-1.07-.33-1.07-1.31V105c0-.81-.14-.9-.86-.9H104.29c-.54,0-.71,0-.71.76v12.79c0,1.17-.27,1.44-1.35,1.44H99.1c-.77,0-.95-.45-.95-1.68v-30c0-.85.18-1.17,1-1.17h3.23c1,0,1.21.32,1.21,1.49V99c0,.73.3.86,1,.86H116c.54,0,.77-.23.77-.77V87.46c0-.86.31-1.22,1.25-1.22h3.14c1,0,1,.36,1,1.13v30.27C122.23,118.81,122.14,119.08,121.24,119.08Z"/><path class="cls-2" d="M138.43,119.56c-7,0-11-2.86-11-12.41,0-9.38,4.44-12.83,11.21-12.83s10.44,3.59,10.44,12.78C149.09,115.18,145.11,119.56,138.43,119.56ZM144,104.63c0-3.94-1.44-6.86-5.52-6.86-3.27,0-5.69,2.2-5.69,7.08v4.41c0,4.87,2.55,6.85,5.75,6.85,3.39,0,5.46-3,5.46-7.39Z"/><path class="cls-2" d="M166.36,98c-.08.44-.27.67-.66.67a7.17,7.17,0,0,0-3.64.95c-2.06,1.21-3.41,2.87-3.41,4.3v13.5c0,1.17-.05,1.71-.89,1.71h-2.82c-1,0-1.27-.5-1.27-1.68V96.33c0-.89.18-1.38,1.08-1.38h2.88c.57,0,1.06.27,1.06,1.16v2.28a8.51,8.51,0,0,1,7.09-3.76c.36,0,.76,0,.72.5Z"/><path class="cls-2" d="M173.68,90.64h-3c-.89,0-1.13-.22-1.13-1.47V87.55c0-1,.19-1.31,1.22-1.31h2.82c1,0,1,.55,1,1.54V89.3C174.58,90.37,174.39,90.64,173.68,90.64Zm0,28.44h-3.14c-.81,0-.95-.42-.95-1.58V96.29c0-.89.19-1.34,1.08-1.34h2.82c1.09,0,1.09.36,1.09,1.34V117.5C174.58,118.66,174.53,119.08,173.68,119.08Z"/><path class="cls-2" d="M195.61,119.08H179.86c-2.1,0-2-1-1.21-2.16l11-18.57h-9.91c-.9,0-1.08,0-1.08-.94V95.85c0-.77.32-.9.94-.9h15.34c1.62,0,2,.36,1.26,1.57l-11.43,19.14h10.75c.81,0,1.18,0,1.18,1v1.47C196.69,118.94,196.46,119.08,195.61,119.08Z"/><path class="cls-2" d="M210.73,119.56c-7,0-11-2.86-11-12.41,0-9.38,4.44-12.83,11.21-12.83s10.45,3.59,10.45,12.78C221.4,115.18,217.41,119.56,210.73,119.56Zm5.55-14.93c0-3.94-1.44-6.86-5.51-6.86-3.27,0-5.7,2.2-5.7,7.08v4.41c0,4.87,2.56,6.85,5.74,6.85,3.41,0,5.47-3,5.47-7.39Z"/><path class="cls-2" d="M244.23,119.08h-2.92c-.76,0-1.17-.5-1.17-1.62V103.2c0-2.39-1.11-4.44-4.21-4.44a5,5,0,0,0-5,5.11v13.5c0,1.17,0,1.71-.9,1.71h-2.83c-1,0-1.24-.5-1.24-1.68V96.33c0-.89.17-1.38,1.07-1.38h2.87c.76,0,1.08.76,1.08,2.82a8.12,8.12,0,0,1,7.13-3.37c3.8,0,7.08,2,7.08,7.72V117C245.21,118.48,245,119.08,244.23,119.08Z"/><path class="cls-2" d="M261.58,99h-4.13v14.53c0,1.47.73,2.37,1.94,2.37a7.2,7.2,0,0,0,2.24-.27c.48-.09.85,3.19.45,3.36a15.33,15.33,0,0,1-4.22.54c-4.31,0-5.61-2.91-5.61-5.87V99H250c-.59,0-.72-.36-.72-.93V96.33c0-.71.13-.89,1-.89h2.15V91c0-.8.54-1,1.26-1.11l2.42-.46c.94-.17,1.21.23,1.21,1.13v4.93h4.31c.85,0,1,.41,1,1v1.7C262.65,98.71,262.52,99,261.58,99Z"/><path class="cls-2" d="M284.27,108.5H271c0,5.19,2.56,7.3,6.78,7.3a19.85,19.85,0,0,0,6.64-1c.8-.32,1.25-.09,1.25.4v2.25c0,.81-.32,1-1.48,1.35a32.58,32.58,0,0,1-6.64.75c-7.71,0-11.65-3.45-11.65-12.33,0-8.61,3.59-12.91,10.4-12.91,6.23,0,9.87,3.45,9.87,9.46v2.77C286.12,107.86,285.93,108.5,284.27,108.5Zm-8.11-11c-3.59,0-5,3.06-5.07,6.64,0,.64,0,.9.58.9h9.06c.44,0,.49-.23.49-.86C281.14,99.92,279.83,97.54,276.16,97.54Z"/></g></g></svg>